<svg viewBox="0 0 1200 644" xmlns="http://www.w3.org/2000/svg" role="img" aria-label="All 18 OmniRoute combo routing strategies, each tile animating the flow it executes: priority drains the first target then the next; fill-first fills a target's quota before moving on; weighted picks randomly by weight; round-robin cycles targets in order; p2c picks two random targets and routes to the lighter one; least-used picks the lowest current load; random picks uniformly; strict-random allows repeats; cost-optimized routes to the cheapest request; headroom picks the most remaining quota; reset-window prefers the quota window resetting soonest; reset-aware ranks by reset time, short windows first; context-relay hands off long context across targets; context-optimized fits the current context size; lkgp sticks to the last successful target; auto scores every connection on 12 live factors; fusion fans out to a panel and a judge synthesizes one answer; pipeline chains steps so each output feeds the next.">
  <desc>Animated grid of 18 routing-strategy tiles; static tracks show each flow on the first frame while a small dot repeatedly travels the path each strategy takes.</desc>
  <defs>
    <pattern id="gridPaperS" width="32" height="32" patternUnits="userSpaceOnUse">
      <path d="M 32 0 L 0 0 0 32" fill="none" stroke="#ffffff" stroke-opacity="0.06" stroke-width="1"/>
    </pattern>
    <radialGradient id="bgGlowS" cx="22%" cy="12%" r="55%">
      <stop offset="0%" stop-color="#e54d5e" stop-opacity="0.10"/>
      <stop offset="55%" stop-color="#8b5cf6" stop-opacity="0.05"/>
      <stop offset="100%" stop-color="#6366f1" stop-opacity="0"/>
    </radialGradient>
  </defs>
  <rect width="1200" height="644" fill="#0b0e14"/>
  <rect width="1200" height="644" fill="url(#gridPaperS)"/>
  <rect width="1200" height="644" fill="url(#bgGlowS)"/>
  <text x="40" y="52" font-family="Consolas, 'Courier New', monospace" font-size="13" letter-spacing="2.5" fill="#a78bfa">COMBO ROUTING &#183; ALL 18 STRATEGY FLOWS</text>
  <line x1="418" y1="47" x2="1160" y2="47" stroke="#232b38" stroke-width="1.5"/>
  <text x="40" y="80" font-family="Inter, 'Segoe UI', Arial, Helvetica, system-ui, sans-serif" font-size="13.5" fill="#71717a">&#9679; request &#8594; &#9646; targets &#8212; each tile animates the path its strategy takes &#183; <tspan fill="#7ee787">green outline = the pick</tspan></text>
  <g transform="translate(40,104)">
<rect width="173" height="158" rx="10" fill="#161b22" stroke="#ffffff" stroke-opacity="0.07" stroke-width="1"/>
<text x="12" y="21" font-family="Consolas, 'Courier New', monospace" font-size="11" fill="#a78bfa">priority</text>
<circle cx="20" cy="79" r="4" fill="none" stroke="#c9d1d9" stroke-width="1.6"/><circle cx="20" cy="79" r="1.6" fill="#c9d1d9"/><path d="M 26,79 C 62,79 84,43.5 112,43.5" fill="none" stroke="#8b5cf6" stroke-opacity="0.55" stroke-width="1.6"/><path d="M 26,79 C 62,79 84,67.5 112,67.5" fill="none" stroke="#71717a" stroke-opacity="0.5" stroke-width="1.1" stroke-dasharray="3 3"/><path d="M 26,79 C 62,79 84,91.5 112,91.5" fill="none" stroke="#71717a" stroke-opacity="0.5" stroke-width="1.1" stroke-dasharray="3 3"/><path d="M 26,79 C 62,79 84,115.5 112,115.5" fill="none" stroke="#71717a" stroke-opacity="0.5" stroke-width="1.1" stroke-dasharray="3 3"/><rect x="116" y="38.0" width="26" height="11" rx="2.5" fill="#1c2330" stroke="#7ee787" stroke-opacity="0.8" stroke-width="1"/><rect x="116" y="62.0" width="26" height="11" rx="2.5" fill="#1c2330" stroke="#ffffff" stroke-opacity="0.10" stroke-width="1"/><rect x="116" y="86.0" width="26" height="11" rx="2.5" fill="#1c2330" stroke="#ffffff" stroke-opacity="0.10" stroke-width="1"/><rect x="116" y="110.0" width="26" height="11" rx="2.5" fill="#1c2330" stroke="#ffffff" stroke-opacity="0.10" stroke-width="1"/><circle r="2.8" fill="#a78bfa" opacity="0"><animateMotion path="M 26,79 C 62,79 84,43.5 110,43.5" begin="0.0s" dur="3.6s" repeatCount="indefinite"/><animate attributeName="opacity" values="0;1;1;0;0" keyTimes="0;0.02;0.3;0.33999999999999997;1" begin="0.0s" dur="3.6s" repeatCount="indefinite"/></circle>
<text x="12" y="148" font-family="Inter, 'Segoe UI', Arial, Helvetica, system-ui, sans-serif" font-size="9.5" fill="#71717a">drain the 1st, then the next</text>
</g><g transform="translate(229,104)">
<rect width="173" height="158" rx="10" fill="#161b22" stroke="#ffffff" stroke-opacity="0.07" stroke-width="1"/>
<text x="12" y="21" font-family="Consolas, 'Courier New', monospace" font-size="11" fill="#a78bfa">fill-first</text>
<circle cx="20" cy="79" r="4" fill="none" stroke="#c9d1d9" stroke-width="1.6"/><circle cx="20" cy="79" r="1.6" fill="#c9d1d9"/><path d="M 26,79 C 62,79 84,43.5 112,43.5" fill="none" stroke="#8b5cf6" stroke-opacity="0.55" stroke-width="1.6"/><path d="M 26,79 C 62,79 84,67.5 112,67.5" fill="none" stroke="#71717a" stroke-opacity="0.5" stroke-width="1.1" stroke-dasharray="3 3"/><rect x="116" y="38.0" width="26" height="11" rx="2.5" fill="#1c2330" stroke="#7ee787" stroke-opacity="0.8" stroke-width="1"/><rect x="118" y="40.5" width="15.8" height="6" rx="1.5" fill="#8b5cf6" fill-opacity="0.55"/><rect x="116" y="62.0" width="26" height="11" rx="2.5" fill="#1c2330" stroke="#ffffff" stroke-opacity="0.10" stroke-width="1"/><rect x="118" y="64.5" width="3.3" height="6" rx="1.5" fill="#8b5cf6" fill-opacity="0.55"/><rect x="116" y="86.0" width="26" height="11" rx="2.5" fill="#1c2330" stroke="#ffffff" stroke-opacity="0.10" stroke-width="1"/><rect x="116" y="110.0" width="26" height="11" rx="2.5" fill="#1c2330" stroke="#ffffff" stroke-opacity="0.10" stroke-width="1"/><circle r="2.8" fill="#a78bfa" opacity="0"><animateMotion path="M 26,79 C 62,79 84,43.5 110,43.5" begin="0.22s" dur="3.6s" repeatCount="indefinite"/><animate attributeName="opacity" values="0;1;1;0;0" keyTimes="0;0.02;0.3;0.33999999999999997;1" begin="0.22s" dur="3.6s" repeatCount="indefinite"/></circle>
<text x="12" y="148" font-family="Inter, 'Segoe UI', Arial, Helvetica, system-ui, sans-serif" font-size="9.5" fill="#71717a">fill T1&#8217;s quota, then move on</text>
</g><g transform="translate(418,104)">
<rect width="173" height="158" rx="10" fill="#161b22" stroke="#ffffff" stroke-opacity="0.07" stroke-width="1"/>
<text x="12" y="21" font-family="Consolas, 'Courier New', monospace" font-size="11" fill="#a78bfa">weighted</text>
<circle cx="20" cy="79" r="4" fill="none" stroke="#c9d1d9" stroke-width="1.6"/><circle cx="20" cy="79" r="1.6" fill="#c9d1d9"/><path d="M 26,79 C 62,79 84,43.5 110,43.5" fill="none" stroke="#8b5cf6" stroke-opacity="0.6" stroke-width="2.6"/><path d="M 26,79 C 62,79 84,67.5 110,67.5" fill="none" stroke="#8b5cf6" stroke-opacity="0.45" stroke-width="1.6"/><path d="M 26,79 C 62,79 84,91.5 110,91.5" fill="none" stroke="#8b5cf6" stroke-opacity="0.3" stroke-width="1"/><path d="M 26,79 C 62,79 84,115.5 112,115.5" fill="none" stroke="#232b38" stroke-width="1.1"/><rect x="116" y="38.0" width="26" height="11" rx="2.5" fill="#1c2330" stroke="#7ee787" stroke-opacity="0.8" stroke-width="1"/><text x="147" y="46.5" font-family="Consolas, 'Courier New', monospace" font-size="8.5" fill="#71717a">60%</text><rect x="116" y="62.0" width="26" height="11" rx="2.5" fill="#1c2330" stroke="#ffffff" stroke-opacity="0.10" stroke-width="1"/><text x="147" y="70.5" font-family="Consolas, 'Courier New', monospace" font-size="8.5" fill="#71717a">30%</text><rect x="116" y="86.0" width="26" height="11" rx="2.5" fill="#1c2330" stroke="#ffffff" stroke-opacity="0.10" stroke-width="1"/><text x="147" y="94.5" font-family="Consolas, 'Courier New', monospace" font-size="8.5" fill="#71717a">10%</text><rect x="116" y="110.0" width="26" height="11" rx="2.5" fill="#1c2330" stroke="#ffffff" stroke-opacity="0.10" stroke-width="1"/><circle r="2.8" fill="#a78bfa" opacity="0"><animateMotion path="M 26,79 C 62,79 84,43.5 110,43.5" begin="0.44s" dur="3.6s" repeatCount="indefinite" keyPoints="0;0;1;1" keyTimes="0;0.04;0.3;1" calcMode="linear"/><animate attributeName="opacity" values="0;0;1;1;0;0" keyTimes="0;0.04;0.06;0.27999999999999997;0.3;1" begin="0.44s" dur="3.6s" repeatCount="indefinite"/></circle><circle r="2.8" fill="#a78bfa" opacity="0"><animateMotion path="M 26,79 C 62,79 84,67.5 110,67.5" begin="0.44s" dur="3.6s" repeatCount="indefinite" keyPoints="0;0;1;1" keyTimes="0;0.4;0.62;1" calcMode="linear"/><animate attributeName="opacity" values="0;0;1;1;0;0" keyTimes="0;0.4;0.42000000000000004;0.6;0.62;1" begin="0.44s" dur="3.6s" repeatCount="indefinite"/></circle><circle r="2.8" fill="#a78bfa" opacity="0"><animateMotion path="M 26,79 C 62,79 84,43.5 110,43.5" begin="0.44s" dur="3.6s" repeatCount="indefinite" keyPoints="0;0;1;1" keyTimes="0;0.7;0.92;1" calcMode="linear"/><animate attributeName="opacity" values="0;0;1;1;0;0" keyTimes="0;0.7;0.72;0.9;0.92;1" begin="0.44s" dur="3.6s" repeatCount="indefinite"/></circle>
<text x="12" y="148" font-family="Inter, 'Segoe UI', Arial, Helvetica, system-ui, sans-serif" font-size="9.5" fill="#71717a">weighted random pick</text>
</g><g transform="translate(607,104)">
<rect width="173" height="158" rx="10" fill="#161b22" stroke="#ffffff" stroke-opacity="0.07" stroke-width="1"/>
<text x="12" y="21" font-family="Consolas, 'Courier New', monospace" font-size="11" fill="#a78bfa">round-robin</text>
<circle cx="20" cy="79" r="4" fill="none" stroke="#c9d1d9" stroke-width="1.6"/><circle cx="20" cy="79" r="1.6" fill="#c9d1d9"/><path d="M 26,79 C 62,79 84,43.5 112,43.5" fill="none" stroke="#8b5cf6" stroke-opacity="0.55" stroke-width="1.6"/><path d="M 26,79 C 62,79 84,67.5 112,67.5" fill="none" stroke="#8b5cf6" stroke-opacity="0.55" stroke-width="1.6"/><path d="M 26,79 C 62,79 84,91.5 112,91.5" fill="none" stroke="#8b5cf6" stroke-opacity="0.55" stroke-width="1.6"/><path d="M 26,79 C 62,79 84,115.5 112,115.5" fill="none" stroke="#8b5cf6" stroke-opacity="0.55" stroke-width="1.6"/><rect x="116" y="38.0" width="26" height="11" rx="2.5" fill="#1c2330" stroke="#ffffff" stroke-opacity="0.10" stroke-width="1"/><rect x="116" y="62.0" width="26" height="11" rx="2.5" fill="#1c2330" stroke="#ffffff" stroke-opacity="0.10" stroke-width="1"/><rect x="116" y="86.0" width="26" height="11" rx="2.5" fill="#1c2330" stroke="#ffffff" stroke-opacity="0.10" stroke-width="1"/><rect x="116" y="110.0" width="26" height="11" rx="2.5" fill="#1c2330" stroke="#ffffff" stroke-opacity="0.10" stroke-width="1"/><circle r="2.8" fill="#a78bfa" opacity="0"><animateMotion path="M 26,79 C 62,79 84,43.5 110,43.5" begin="0.66s" dur="4.0s" repeatCount="indefinite" keyPoints="0;0;1;1" keyTimes="0;0.05;0.21;1" calcMode="linear"/><animate attributeName="opacity" values="0;0;1;1;0;0" keyTimes="0;0.05;0.07;0.19;0.21;1" begin="0.66s" dur="4.0s" repeatCount="indefinite"/></circle><circle r="2.8" fill="#a78bfa" opacity="0"><animateMotion path="M 26,79 C 62,79 84,67.5 110,67.5" begin="0.66s" dur="4.0s" repeatCount="indefinite" keyPoints="0;0;1;1" keyTimes="0;0.29;0.44999999999999996;1" calcMode="linear"/><animate attributeName="opacity" values="0;0;1;1;0;0" keyTimes="0;0.29;0.31;0.42999999999999994;0.44999999999999996;1" begin="0.66s" dur="4.0s" repeatCount="indefinite"/></circle><circle r="2.8" fill="#a78bfa" opacity="0"><animateMotion path="M 26,79 C 62,79 84,91.5 110,91.5" begin="0.66s" dur="4.0s" repeatCount="indefinite" keyPoints="0;0;1;1" keyTimes="0;0.53;0.69;1" calcMode="linear"/><animate attributeName="opacity" values="0;0;1;1;0;0" keyTimes="0;0.53;0.55;0.6699999999999999;0.69;1" begin="0.66s" dur="4.0s" repeatCount="indefinite"/></circle><circle r="2.8" fill="#a78bfa" opacity="0"><animateMotion path="M 26,79 C 62,79 84,115.5 110,115.5" begin="0.66s" dur="4.0s" repeatCount="indefinite" keyPoints="0;0;1;1" keyTimes="0;0.77;0.9299999999999999;1" calcMode="linear"/><animate attributeName="opacity" values="0;0;1;1;0;0" keyTimes="0;0.77;0.79;0.9099999999999999;0.9299999999999999;1" begin="0.66s" dur="4.0s" repeatCount="indefinite"/></circle>
<text x="12" y="148" font-family="Inter, 'Segoe UI', Arial, Helvetica, system-ui, sans-serif" font-size="9.5" fill="#71717a">cycle in order 1&#8594;2&#8594;3&#8594;4</text>
</g><g transform="translate(796,104)">
<rect width="173" height="158" rx="10" fill="#161b22" stroke="#ffffff" stroke-opacity="0.07" stroke-width="1"/>
<text x="12" y="21" font-family="Consolas, 'Courier New', monospace" font-size="11" fill="#a78bfa">p2c</text>
<circle cx="20" cy="79" r="4" fill="none" stroke="#c9d1d9" stroke-width="1.6"/><circle cx="20" cy="79" r="1.6" fill="#c9d1d9"/><path d="M 26,79 C 62,79 84,67.5 112,67.5" fill="none" stroke="#71717a" stroke-opacity="0.5" stroke-width="1.1" stroke-dasharray="3 3"/><path d="M 26,79 C 62,79 84,115.5 112,115.5" fill="none" stroke="#71717a" stroke-opacity="0.5" stroke-width="1.1" stroke-dasharray="3 3"/><rect x="116" y="38.0" width="26" height="11" rx="2.5" fill="#1c2330" stroke="#ffffff" stroke-opacity="0.10" stroke-width="1"/><rect x="116" y="62.0" width="26" height="11" rx="2.5" fill="#1c2330" stroke="#7ee787" stroke-opacity="0.8" stroke-width="1"/><text x="147" y="70.5" font-family="Consolas, 'Courier New', monospace" font-size="8.5" fill="#71717a">20%</text><rect x="116" y="86.0" width="26" height="11" rx="2.5" fill="#1c2330" stroke="#ffffff" stroke-opacity="0.10" stroke-width="1"/><rect x="116" y="110.0" width="26" height="11" rx="2.5" fill="#1c2330" stroke="#ffffff" stroke-opacity="0.10" stroke-width="1"/><text x="147" y="118.5" font-family="Consolas, 'Courier New', monospace" font-size="8.5" fill="#71717a">65%</text><circle r="2.8" fill="#a78bfa" opacity="0"><animateMotion path="M 26,79 C 62,79 84,67.5 110,67.5" begin="0.88s" dur="3.6s" repeatCount="indefinite" keyPoints="0;0;1;1" keyTimes="0;0.05;0.24;1" calcMode="linear"/><animate attributeName="opacity" values="0;0;1;1;0;0" keyTimes="0;0.05;0.07;0.22;0.24;1" begin="0.88s" dur="3.6s" repeatCount="indefinite"/></circle><circle r="2.8" fill="#a78bfa" opacity="0"><animateMotion path="M 26,79 C 62,79 84,115.5 110,115.5" begin="0.88s" dur="3.6s" repeatCount="indefinite" keyPoints="0;0;1;1" keyTimes="0;0.05;0.24;1" calcMode="linear"/><animate attributeName="opacity" values="0;0;1;1;0;0" keyTimes="0;0.05;0.07;0.22;0.24;1" begin="0.88s" dur="3.6s" repeatCount="indefinite"/></circle><circle r="2.8" fill="#7ee787" opacity="0"><animateMotion path="M 26,79 C 62,79 84,67.5 110,67.5" begin="0.88s" dur="3.6s" repeatCount="indefinite" keyPoints="0;0;1;1" keyTimes="0;0.4;0.68;1" calcMode="linear"/><animate attributeName="opacity" values="0;0;1;1;0;0" keyTimes="0;0.4;0.42000000000000004;0.66;0.68;1" begin="0.88s" dur="3.6s" repeatCount="indefinite"/></circle>
<text x="12" y="148" font-family="Inter, 'Segoe UI', Arial, Helvetica, system-ui, sans-serif" font-size="9.5" fill="#71717a">pick 2, take the lighter</text>
</g><g transform="translate(985,104)">
<rect width="173" height="158" rx="10" fill="#161b22" stroke="#ffffff" stroke-opacity="0.07" stroke-width="1"/>
<text x="12" y="21" font-family="Consolas, 'Courier New', monospace" font-size="11" fill="#a78bfa">least-used</text>
<circle cx="20" cy="79" r="4" fill="none" stroke="#c9d1d9" stroke-width="1.6"/><circle cx="20" cy="79" r="1.6" fill="#c9d1d9"/><path d="M 26,79 C 62,79 84,67.5 112,67.5" fill="none" stroke="#8b5cf6" stroke-opacity="0.55" stroke-width="1.6"/><rect x="116" y="38.0" width="26" height="11" rx="2.5" fill="#1c2330" stroke="#ffffff" stroke-opacity="0.10" stroke-width="1"/><rect x="118" y="40.5" width="16.5" height="6" rx="1.5" fill="#8b5cf6" fill-opacity="0.55"/><text x="147" y="46.5" font-family="Consolas, 'Courier New', monospace" font-size="8.5" fill="#71717a">75%</text><rect x="116" y="62.0" width="26" height="11" rx="2.5" fill="#1c2330" stroke="#7ee787" stroke-opacity="0.8" stroke-width="1"/><rect x="118" y="64.5" width="4.4" height="6" rx="1.5" fill="#8b5cf6" fill-opacity="0.55"/><text x="147" y="70.5" font-family="Consolas, 'Courier New', monospace" font-size="8.5" fill="#71717a">20%</text><rect x="116" y="86.0" width="26" height="11" rx="2.5" fill="#1c2330" stroke="#ffffff" stroke-opacity="0.10" stroke-width="1"/><rect x="118" y="88.5" width="12.1" height="6" rx="1.5" fill="#8b5cf6" fill-opacity="0.55"/><text x="147" y="94.5" font-family="Consolas, 'Courier New', monospace" font-size="8.5" fill="#71717a">55%</text><rect x="116" y="110.0" width="26" height="11" rx="2.5" fill="#1c2330" stroke="#ffffff" stroke-opacity="0.10" stroke-width="1"/><rect x="118" y="112.5" width="8.8" height="6" rx="1.5" fill="#8b5cf6" fill-opacity="0.55"/><text x="147" y="118.5" font-family="Consolas, 'Courier New', monospace" font-size="8.5" fill="#71717a">40%</text><circle r="2.8" fill="#a78bfa" opacity="0"><animateMotion path="M 26,79 C 62,79 84,67.5 110,67.5" begin="1.1s" dur="3.6s" repeatCount="indefinite"/><animate attributeName="opacity" values="0;1;1;0;0" keyTimes="0;0.02;0.3;0.33999999999999997;1" begin="1.1s" dur="3.6s" repeatCount="indefinite"/></circle>
<text x="12" y="148" font-family="Inter, 'Segoe UI', Arial, Helvetica, system-ui, sans-serif" font-size="9.5" fill="#71717a">lowest current load wins</text>
</g><g transform="translate(40,280)">
<rect width="173" height="158" rx="10" fill="#161b22" stroke="#ffffff" stroke-opacity="0.07" stroke-width="1"/>
<text x="12" y="21" font-family="Consolas, 'Courier New', monospace" font-size="11" fill="#a78bfa">random</text>
<circle cx="20" cy="79" r="4" fill="none" stroke="#c9d1d9" stroke-width="1.6"/><circle cx="20" cy="79" r="1.6" fill="#c9d1d9"/><path d="M 26,79 C 62,79 84,43.5 112,43.5" fill="none" stroke="#232b38" stroke-width="1.1"/><path d="M 26,79 C 62,79 84,67.5 112,67.5" fill="none" stroke="#232b38" stroke-width="1.1"/><path d="M 26,79 C 62,79 84,91.5 112,91.5" fill="none" stroke="#232b38" stroke-width="1.1"/><path d="M 26,79 C 62,79 84,115.5 112,115.5" fill="none" stroke="#232b38" stroke-width="1.1"/><rect x="116" y="38.0" width="26" height="11" rx="2.5" fill="#1c2330" stroke="#ffffff" stroke-opacity="0.10" stroke-width="1"/><rect x="116" y="62.0" width="26" height="11" rx="2.5" fill="#1c2330" stroke="#ffffff" stroke-opacity="0.10" stroke-width="1"/><rect x="116" y="86.0" width="26" height="11" rx="2.5" fill="#1c2330" stroke="#ffffff" stroke-opacity="0.10" stroke-width="1"/><rect x="116" y="110.0" width="26" height="11" rx="2.5" fill="#1c2330" stroke="#ffffff" stroke-opacity="0.10" stroke-width="1"/><circle r="2.8" fill="#a78bfa" opacity="0"><animateMotion path="M 26,79 C 62,79 84,91.5 110,91.5" begin="1.32s" dur="4.0s" repeatCount="indefinite" keyPoints="0;0;1;1" keyTimes="0;0.05;0.2;1" calcMode="linear"/><animate attributeName="opacity" values="0;0;1;1;0;0" keyTimes="0;0.05;0.07;0.18000000000000002;0.2;1" begin="1.32s" dur="4.0s" repeatCount="indefinite"/></circle><circle r="2.8" fill="#a78bfa" opacity="0"><animateMotion path="M 26,79 C 62,79 84,43.5 110,43.5" begin="1.32s" dur="4.0s" repeatCount="indefinite" keyPoints="0;0;1;1" keyTimes="0;0.28;0.43;1" calcMode="linear"/><animate attributeName="opacity" values="0;0;1;1;0;0" keyTimes="0;0.28;0.30000000000000004;0.41;0.43;1" begin="1.32s" dur="4.0s" repeatCount="indefinite"/></circle><circle r="2.8" fill="#a78bfa" opacity="0"><animateMotion path="M 26,79 C 62,79 84,115.5 110,115.5" begin="1.32s" dur="4.0s" repeatCount="indefinite" keyPoints="0;0;1;1" keyTimes="0;0.51;0.66;1" calcMode="linear"/><animate attributeName="opacity" values="0;0;1;1;0;0" keyTimes="0;0.51;0.53;0.64;0.66;1" begin="1.32s" dur="4.0s" repeatCount="indefinite"/></circle><circle r="2.8" fill="#a78bfa" opacity="0"><animateMotion path="M 26,79 C 62,79 84,67.5 110,67.5" begin="1.32s" dur="4.0s" repeatCount="indefinite" keyPoints="0;0;1;1" keyTimes="0;0.74;0.89;1" calcMode="linear"/><animate attributeName="opacity" values="0;0;1;1;0;0" keyTimes="0;0.74;0.76;0.87;0.89;1" begin="1.32s" dur="4.0s" repeatCount="indefinite"/></circle>
<text x="12" y="148" font-family="Inter, 'Segoe UI', Arial, Helvetica, system-ui, sans-serif" font-size="9.5" fill="#71717a">uniform random (deduped)</text>
</g><g transform="translate(229,280)">
<rect width="173" height="158" rx="10" fill="#161b22" stroke="#ffffff" stroke-opacity="0.07" stroke-width="1"/>
<text x="12" y="21" font-family="Consolas, 'Courier New', monospace" font-size="11" fill="#a78bfa">strict-random</text>
<circle cx="20" cy="79" r="4" fill="none" stroke="#c9d1d9" stroke-width="1.6"/><circle cx="20" cy="79" r="1.6" fill="#c9d1d9"/><path d="M 26,79 C 62,79 84,43.5 112,43.5" fill="none" stroke="#232b38" stroke-width="1.1"/><path d="M 26,79 C 62,79 84,67.5 112,67.5" fill="none" stroke="#232b38" stroke-width="1.1"/><path d="M 26,79 C 62,79 84,91.5 112,91.5" fill="none" stroke="#232b38" stroke-width="1.1"/><path d="M 26,79 C 62,79 84,115.5 112,115.5" fill="none" stroke="#232b38" stroke-width="1.1"/><rect x="116" y="38.0" width="26" height="11" rx="2.5" fill="#1c2330" stroke="#ffffff" stroke-opacity="0.10" stroke-width="1"/><rect x="116" y="62.0" width="26" height="11" rx="2.5" fill="#1c2330" stroke="#ffffff" stroke-opacity="0.10" stroke-width="1"/><text x="147" y="70.5" font-family="Consolas, 'Courier New', monospace" font-size="8.5" fill="#71717a">&#215;2!</text><rect x="116" y="86.0" width="26" height="11" rx="2.5" fill="#1c2330" stroke="#ffffff" stroke-opacity="0.10" stroke-width="1"/><rect x="116" y="110.0" width="26" height="11" rx="2.5" fill="#1c2330" stroke="#ffffff" stroke-opacity="0.10" stroke-width="1"/><circle r="2.8" fill="#a78bfa" opacity="0"><animateMotion path="M 26,79 C 62,79 84,67.5 110,67.5" begin="1.54s" dur="4.0s" repeatCount="indefinite" keyPoints="0;0;1;1" keyTimes="0;0.05;0.2;1" calcMode="linear"/><animate attributeName="opacity" values="0;0;1;1;0;0" keyTimes="0;0.05;0.07;0.18000000000000002;0.2;1" begin="1.54s" dur="4.0s" repeatCount="indefinite"/></circle><circle r="2.8" fill="#a78bfa" opacity="0"><animateMotion path="M 26,79 C 62,79 84,67.5 110,67.5" begin="1.54s" dur="4.0s" repeatCount="indefinite" keyPoints="0;0;1;1" keyTimes="0;0.28;0.43;1" calcMode="linear"/><animate attributeName="opacity" values="0;0;1;1;0;0" keyTimes="0;0.28;0.30000000000000004;0.41;0.43;1" begin="1.54s" dur="4.0s" repeatCount="indefinite"/></circle><circle r="2.8" fill="#a78bfa" opacity="0"><animateMotion path="M 26,79 C 62,79 84,115.5 110,115.5" begin="1.54s" dur="4.0s" repeatCount="indefinite" keyPoints="0;0;1;1" keyTimes="0;0.51;0.66;1" calcMode="linear"/><animate attributeName="opacity" values="0;0;1;1;0;0" keyTimes="0;0.51;0.53;0.64;0.66;1" begin="1.54s" dur="4.0s" repeatCount="indefinite"/></circle><circle r="2.8" fill="#a78bfa" opacity="0"><animateMotion path="M 26,79 C 62,79 84,43.5 110,43.5" begin="1.54s" dur="4.0s" repeatCount="indefinite" keyPoints="0;0;1;1" keyTimes="0;0.74;0.89;1" calcMode="linear"/><animate attributeName="opacity" values="0;0;1;1;0;0" keyTimes="0;0.74;0.76;0.87;0.89;1" begin="1.54s" dur="4.0s" repeatCount="indefinite"/></circle>
<text x="12" y="148" font-family="Inter, 'Segoe UI', Arial, Helvetica, system-ui, sans-serif" font-size="9.5" fill="#71717a">pure random &#8212; repeats ok</text>
</g><g transform="translate(418,280)">
<rect width="173" height="158" rx="10" fill="#161b22" stroke="#ffffff" stroke-opacity="0.07" stroke-width="1"/>
<text x="12" y="21" font-family="Consolas, 'Courier New', monospace" font-size="11" fill="#a78bfa">cost-optimized</text>
<circle cx="20" cy="79" r="4" fill="none" stroke="#c9d1d9" stroke-width="1.6"/><circle cx="20" cy="79" r="1.6" fill="#c9d1d9"/><path d="M 26,79 C 62,79 84,115.5 112,115.5" fill="none" stroke="#8b5cf6" stroke-opacity="0.55" stroke-width="1.6"/><rect x="116" y="38.0" width="26" height="11" rx="2.5" fill="#1c2330" stroke="#ffffff" stroke-opacity="0.10" stroke-width="1"/><text x="147" y="46.5" font-family="Consolas, 'Courier New', monospace" font-size="8.5" fill="#71717a">$9</text><rect x="116" y="62.0" width="26" height="11" rx="2.5" fill="#1c2330" stroke="#ffffff" stroke-opacity="0.10" stroke-width="1"/><text x="147" y="70.5" font-family="Consolas, 'Courier New', monospace" font-size="8.5" fill="#71717a">$3</text><rect x="116" y="86.0" width="26" height="11" rx="2.5" fill="#1c2330" stroke="#ffffff" stroke-opacity="0.10" stroke-width="1"/><text x="147" y="94.5" font-family="Consolas, 'Courier New', monospace" font-size="8.5" fill="#71717a">$0.5</text><rect x="116" y="110.0" width="26" height="11" rx="2.5" fill="#1c2330" stroke="#7ee787" stroke-opacity="0.8" stroke-width="1"/><text x="147" y="118.5" font-family="Consolas, 'Courier New', monospace" font-size="8.5" fill="#71717a">FREE</text><circle r="2.8" fill="#7ee787" opacity="0"><animateMotion path="M 26,79 C 62,79 84,115.5 110,115.5" begin="1.76s" dur="3.6s" repeatCount="indefinite"/><animate attributeName="opacity" values="0;1;1;0;0" keyTimes="0;0.02;0.3;0.33999999999999997;1" begin="1.76s" dur="3.6s" repeatCount="indefinite"/></circle>
<text x="12" y="148" font-family="Inter, 'Segoe UI', Arial, Helvetica, system-ui, sans-serif" font-size="9.5" fill="#71717a">cheapest $ per request</text>
</g><g transform="translate(607,280)">
<rect width="173" height="158" rx="10" fill="#161b22" stroke="#ffffff" stroke-opacity="0.07" stroke-width="1"/>
<text x="12" y="21" font-family="Consolas, 'Courier New', monospace" font-size="11" fill="#a78bfa">headroom</text>
<circle cx="20" cy="79" r="4" fill="none" stroke="#c9d1d9" stroke-width="1.6"/><circle cx="20" cy="79" r="1.6" fill="#c9d1d9"/><path d="M 26,79 C 62,79 84,67.5 112,67.5" fill="none" stroke="#8b5cf6" stroke-opacity="0.55" stroke-width="1.6"/><rect x="116" y="38.0" width="26" height="11" rx="2.5" fill="#1c2330" stroke="#ffffff" stroke-opacity="0.10" stroke-width="1"/><rect x="118" y="40.5" width="2.2" height="6" rx="1.5" fill="#8b5cf6" fill-opacity="0.55"/><text x="147" y="46.5" font-family="Consolas, 'Courier New', monospace" font-size="8.5" fill="#71717a">10%</text><rect x="116" y="62.0" width="26" height="11" rx="2.5" fill="#1c2330" stroke="#7ee787" stroke-opacity="0.8" stroke-width="1"/><rect x="118" y="64.5" width="17.6" height="6" rx="1.5" fill="#8b5cf6" fill-opacity="0.55"/><text x="147" y="70.5" font-family="Consolas, 'Courier New', monospace" font-size="8.5" fill="#71717a">80%</text><rect x="116" y="86.0" width="26" height="11" rx="2.5" fill="#1c2330" stroke="#ffffff" stroke-opacity="0.10" stroke-width="1"/><rect x="118" y="88.5" width="8.8" height="6" rx="1.5" fill="#8b5cf6" fill-opacity="0.55"/><text x="147" y="94.5" font-family="Consolas, 'Courier New', monospace" font-size="8.5" fill="#71717a">40%</text><rect x="116" y="110.0" width="26" height="11" rx="2.5" fill="#1c2330" stroke="#ffffff" stroke-opacity="0.10" stroke-width="1"/><rect x="118" y="112.5" width="13.2" height="6" rx="1.5" fill="#8b5cf6" fill-opacity="0.55"/><text x="147" y="118.5" font-family="Consolas, 'Courier New', monospace" font-size="8.5" fill="#71717a">60%</text><circle r="2.8" fill="#a78bfa" opacity="0"><animateMotion path="M 26,79 C 62,79 84,67.5 110,67.5" begin="1.98s" dur="3.6s" repeatCount="indefinite"/><animate attributeName="opacity" values="0;1;1;0;0" keyTimes="0;0.02;0.3;0.33999999999999997;1" begin="1.98s" dur="3.6s" repeatCount="indefinite"/></circle>
<text x="12" y="148" font-family="Inter, 'Segoe UI', Arial, Helvetica, system-ui, sans-serif" font-size="9.5" fill="#71717a">most remaining quota</text>
</g><g transform="translate(796,280)">
<rect width="173" height="158" rx="10" fill="#161b22" stroke="#ffffff" stroke-opacity="0.07" stroke-width="1"/>
<text x="12" y="21" font-family="Consolas, 'Courier New', monospace" font-size="11" fill="#a78bfa">reset-window</text>
<circle cx="20" cy="79" r="4" fill="none" stroke="#c9d1d9" stroke-width="1.6"/><circle cx="20" cy="79" r="1.6" fill="#c9d1d9"/><path d="M 26,79 C 62,79 84,67.5 112,67.5" fill="none" stroke="#8b5cf6" stroke-opacity="0.55" stroke-width="1.6"/><rect x="116" y="38.0" width="26" height="11" rx="2.5" fill="#1c2330" stroke="#ffffff" stroke-opacity="0.10" stroke-width="1"/><text x="147" y="46.5" font-family="Consolas, 'Courier New', monospace" font-size="8.5" fill="#71717a">58m</text><rect x="116" y="62.0" width="26" height="11" rx="2.5" fill="#1c2330" stroke="#7ee787" stroke-opacity="0.8" stroke-width="1"/><text x="147" y="70.5" font-family="Consolas, 'Courier New', monospace" font-size="8.5" fill="#71717a">2m!</text><rect x="116" y="86.0" width="26" height="11" rx="2.5" fill="#1c2330" stroke="#ffffff" stroke-opacity="0.10" stroke-width="1"/><text x="147" y="94.5" font-family="Consolas, 'Courier New', monospace" font-size="8.5" fill="#71717a">31m</text><rect x="116" y="110.0" width="26" height="11" rx="2.5" fill="#1c2330" stroke="#ffffff" stroke-opacity="0.10" stroke-width="1"/><text x="147" y="118.5" font-family="Consolas, 'Courier New', monospace" font-size="8.5" fill="#71717a">12h</text><circle r="2.8" fill="#a78bfa" opacity="0"><animateMotion path="M 26,79 C 62,79 84,67.5 110,67.5" begin="2.2s" dur="3.6s" repeatCount="indefinite"/><animate attributeName="opacity" values="0;1;1;0;0" keyTimes="0;0.02;0.3;0.33999999999999997;1" begin="2.2s" dur="3.6s" repeatCount="indefinite"/></circle>
<text x="12" y="148" font-family="Inter, 'Segoe UI', Arial, Helvetica, system-ui, sans-serif" font-size="9.5" fill="#71717a">resets soonest &#8594; use it</text>
</g><g transform="translate(985,280)">
<rect width="173" height="158" rx="10" fill="#161b22" stroke="#ffffff" stroke-opacity="0.07" stroke-width="1"/>
<text x="12" y="21" font-family="Consolas, 'Courier New', monospace" font-size="11" fill="#a78bfa">reset-aware</text>
<circle cx="20" cy="79" r="4" fill="none" stroke="#c9d1d9" stroke-width="1.6"/><circle cx="20" cy="79" r="1.6" fill="#c9d1d9"/><path d="M 26,79 C 62,79 84,67.5 112,67.5" fill="none" stroke="#8b5cf6" stroke-opacity="0.55" stroke-width="1.6"/><path d="M 26,79 C 62,79 84,91.5 112,91.5" fill="none" stroke="#71717a" stroke-opacity="0.5" stroke-width="1.1" stroke-dasharray="3 3"/><path d="M 26,79 C 62,79 84,43.5 112,43.5" fill="none" stroke="#71717a" stroke-opacity="0.5" stroke-width="1.1" stroke-dasharray="3 3"/><rect x="116" y="38.0" width="26" height="11" rx="2.5" fill="#1c2330" stroke="#ffffff" stroke-opacity="0.10" stroke-width="1"/><text x="147" y="46.5" font-family="Consolas, 'Courier New', monospace" font-size="8.5" fill="#71717a">3rd</text><rect x="116" y="62.0" width="26" height="11" rx="2.5" fill="#1c2330" stroke="#7ee787" stroke-opacity="0.8" stroke-width="1"/><text x="147" y="70.5" font-family="Consolas, 'Courier New', monospace" font-size="8.5" fill="#71717a">1st</text><rect x="116" y="86.0" width="26" height="11" rx="2.5" fill="#1c2330" stroke="#ffffff" stroke-opacity="0.10" stroke-width="1"/><text x="147" y="94.5" font-family="Consolas, 'Courier New', monospace" font-size="8.5" fill="#71717a">2nd</text><rect x="116" y="110.0" width="26" height="11" rx="2.5" fill="#1c2330" stroke="#ffffff" stroke-opacity="0.10" stroke-width="1"/><text x="147" y="118.5" font-family="Consolas, 'Courier New', monospace" font-size="8.5" fill="#71717a">4th</text><circle r="2.8" fill="#a78bfa" opacity="0"><animateMotion path="M 26,79 C 62,79 84,67.5 110,67.5" begin="2.42s" dur="3.6s" repeatCount="indefinite" keyPoints="0;0;1;1" keyTimes="0;0.05;0.28;1" calcMode="linear"/><animate attributeName="opacity" values="0;0;1;1;0;0" keyTimes="0;0.05;0.07;0.26;0.28;1" begin="2.42s" dur="3.6s" repeatCount="indefinite"/></circle><circle r="2.8" fill="#a78bfa" opacity="0"><animateMotion path="M 26,79 C 62,79 84,91.5 110,91.5" begin="2.42s" dur="3.6s" repeatCount="indefinite" keyPoints="0;0;1;1" keyTimes="0;0.42;0.62;1" calcMode="linear"/><animate attributeName="opacity" values="0;0;1;1;0;0" keyTimes="0;0.42;0.44;0.6;0.62;1" begin="2.42s" dur="3.6s" repeatCount="indefinite"/></circle>
<text x="12" y="148" font-family="Inter, 'Segoe UI', Arial, Helvetica, system-ui, sans-serif" font-size="9.5" fill="#71717a">rank by reset &#8212; short first</text>
</g><g transform="translate(40,456)">
<rect width="173" height="158" rx="10" fill="#161b22" stroke="#ffffff" stroke-opacity="0.07" stroke-width="1"/>
<text x="12" y="21" font-family="Consolas, 'Courier New', monospace" font-size="11" fill="#a78bfa">context-relay</text>
<circle cx="20" cy="79" r="4" fill="none" stroke="#c9d1d9" stroke-width="1.6"/><circle cx="20" cy="79" r="1.6" fill="#c9d1d9"/><path d="M 26,79 C 62,79 84,43.5 112,43.5" fill="none" stroke="#8b5cf6" stroke-opacity="0.55" stroke-width="1.6"/><path d="M 112,43.5 C 96,43.5 96,67.5 112,67.5" fill="none" stroke="#8b5cf6" stroke-opacity="0.55" stroke-width="1.6"/><rect x="116" y="38.0" width="26" height="11" rx="2.5" fill="#1c2330" stroke="#7ee787" stroke-opacity="0.8" stroke-width="1"/><rect x="116" y="62.0" width="26" height="11" rx="2.5" fill="#1c2330" stroke="#7ee787" stroke-opacity="0.8" stroke-width="1"/><rect x="116" y="86.0" width="26" height="11" rx="2.5" fill="#1c2330" stroke="#ffffff" stroke-opacity="0.10" stroke-width="1"/><rect x="116" y="110.0" width="26" height="11" rx="2.5" fill="#1c2330" stroke="#ffffff" stroke-opacity="0.10" stroke-width="1"/><circle r="3.2" fill="#a78bfa" opacity="0"><animateMotion path="M 26,79 C 62,79 84,43.5 110,43.5 C 94,43.5 94,67.5 110,67.5" begin="2.64s" dur="4.0s" repeatCount="indefinite" keyPoints="0;0;1;1" keyTimes="0;0.05;0.6;1" calcMode="linear"/><animate attributeName="opacity" values="0;0;1;1;0;0" keyTimes="0;0.05;0.07;0.58;0.6;1" begin="2.64s" dur="4.0s" repeatCount="indefinite"/></circle>
<text x="12" y="148" font-family="Inter, 'Segoe UI', Arial, Helvetica, system-ui, sans-serif" font-size="9.5" fill="#71717a">hand off long context</text>
</g><g transform="translate(229,456)">
<rect width="173" height="158" rx="10" fill="#161b22" stroke="#ffffff" stroke-opacity="0.07" stroke-width="1"/>
<text x="12" y="21" font-family="Consolas, 'Courier New', monospace" font-size="11" fill="#a78bfa">context-optimized</text>
<circle cx="20" cy="79" r="4" fill="none" stroke="#c9d1d9" stroke-width="1.6"/><circle cx="20" cy="79" r="1.6" fill="#c9d1d9"/><path d="M 26,79 C 62,79 84,67.5 112,67.5" fill="none" stroke="#8b5cf6" stroke-opacity="0.55" stroke-width="1.6"/><rect x="116" y="38.0" width="26" height="11" rx="2.5" fill="#1c2330" stroke="#ffffff" stroke-opacity="0.10" stroke-width="1"/><text x="147" y="46.5" font-family="Consolas, 'Courier New', monospace" font-size="8.5" fill="#71717a">8K</text><rect x="116" y="62.0" width="26" height="11" rx="2.5" fill="#1c2330" stroke="#7ee787" stroke-opacity="0.8" stroke-width="1"/><text x="147" y="70.5" font-family="Consolas, 'Courier New', monospace" font-size="8.5" fill="#71717a">200K</text><rect x="116" y="86.0" width="26" height="11" rx="2.5" fill="#1c2330" stroke="#ffffff" stroke-opacity="0.10" stroke-width="1"/><text x="147" y="94.5" font-family="Consolas, 'Courier New', monospace" font-size="8.5" fill="#71717a">32K</text><rect x="116" y="110.0" width="26" height="11" rx="2.5" fill="#1c2330" stroke="#ffffff" stroke-opacity="0.10" stroke-width="1"/><text x="147" y="118.5" font-family="Consolas, 'Courier New', monospace" font-size="8.5" fill="#71717a">128K</text><circle r="3.4" fill="#a78bfa" opacity="0"><animateMotion path="M 26,79 C 62,79 84,67.5 110,67.5" begin="2.86s" dur="3.6s" repeatCount="indefinite"/><animate attributeName="opacity" values="0;1;1;0;0" keyTimes="0;0.02;0.3;0.33999999999999997;1" begin="2.86s" dur="3.6s" repeatCount="indefinite"/></circle>
<text x="12" y="148" font-family="Inter, 'Segoe UI', Arial, Helvetica, system-ui, sans-serif" font-size="9.5" fill="#71717a">fit the context size</text>
</g><g transform="translate(418,456)">
<rect width="173" height="158" rx="10" fill="#161b22" stroke="#ffffff" stroke-opacity="0.07" stroke-width="1"/>
<text x="12" y="21" font-family="Consolas, 'Courier New', monospace" font-size="11" fill="#a78bfa">lkgp</text>
<circle cx="20" cy="79" r="4" fill="none" stroke="#c9d1d9" stroke-width="1.6"/><circle cx="20" cy="79" r="1.6" fill="#c9d1d9"/><path d="M 26,79 C 62,79 84,67.5 112,67.5" fill="none" stroke="#8b5cf6" stroke-opacity="0.55" stroke-width="1.6"/><rect x="116" y="38.0" width="26" height="11" rx="2.5" fill="#1c2330" stroke="#ffffff" stroke-opacity="0.10" stroke-width="1"/><rect x="116" y="62.0" width="26" height="11" rx="2.5" fill="#1c2330" stroke="#7ee787" stroke-opacity="0.8" stroke-width="1"/><rect x="116" y="86.0" width="26" height="11" rx="2.5" fill="#1c2330" stroke="#ffffff" stroke-opacity="0.10" stroke-width="1"/><rect x="116" y="110.0" width="26" height="11" rx="2.5" fill="#1c2330" stroke="#ffffff" stroke-opacity="0.10" stroke-width="1"/><g transform="translate(125.0,63.5)" stroke="#7ee787" stroke-width="1.6" fill="none" stroke-linecap="round" stroke-linejoin="round"><path d="M 0,4 L 3,7 L 8,1"/></g><circle r="2.8" fill="#a78bfa" opacity="0"><animateMotion path="M 26,79 C 62,79 84,67.5 110,67.5" begin="3.08s" dur="3.6s" repeatCount="indefinite" keyPoints="0;0;1;1" keyTimes="0;0.05;0.28;1" calcMode="linear"/><animate attributeName="opacity" values="0;0;1;1;0;0" keyTimes="0;0.05;0.07;0.26;0.28;1" begin="3.08s" dur="3.6s" repeatCount="indefinite"/></circle><circle r="2.8" fill="#a78bfa" opacity="0"><animateMotion path="M 26,79 C 62,79 84,67.5 110,67.5" begin="3.08s" dur="3.6s" repeatCount="indefinite" keyPoints="0;0;1;1" keyTimes="0;0.45;0.68;1" calcMode="linear"/><animate attributeName="opacity" values="0;0;1;1;0;0" keyTimes="0;0.45;0.47000000000000003;0.66;0.68;1" begin="3.08s" dur="3.6s" repeatCount="indefinite"/></circle>
<text x="12" y="148" font-family="Inter, 'Segoe UI', Arial, Helvetica, system-ui, sans-serif" font-size="9.5" fill="#71717a">sticky to last success</text>
</g><g transform="translate(607,456)">
<rect width="173" height="158" rx="10" fill="#161b22" stroke="#ffffff" stroke-opacity="0.07" stroke-width="1"/>
<text x="12" y="21" font-family="Consolas, 'Courier New', monospace" font-size="11" fill="#a78bfa">auto</text>
<circle cx="20" cy="79" r="4" fill="none" stroke="#c9d1d9" stroke-width="1.6"/><circle cx="20" cy="79" r="1.6" fill="#c9d1d9"/><path d="M 26,79 C 62,79 84,67.5 112,67.5" fill="none" stroke="#8b5cf6" stroke-opacity="0.55" stroke-width="1.6"/><rect x="116" y="38.0" width="26" height="11" rx="2.5" fill="#1c2330" stroke="#ffffff" stroke-opacity="0.10" stroke-width="1"/><text x="147" y="46.5" font-family="Consolas, 'Courier New', monospace" font-size="8.5" fill="#71717a">72</text><rect x="116" y="62.0" width="26" height="11" rx="2.5" fill="#1c2330" stroke="#7ee787" stroke-opacity="0.8" stroke-width="1"/><text x="147" y="70.5" font-family="Consolas, 'Courier New', monospace" font-size="8.5" fill="#71717a">91</text><rect x="116" y="86.0" width="26" height="11" rx="2.5" fill="#1c2330" stroke="#ffffff" stroke-opacity="0.10" stroke-width="1"/><text x="147" y="94.5" font-family="Consolas, 'Courier New', monospace" font-size="8.5" fill="#71717a">64</text><rect x="116" y="110.0" width="26" height="11" rx="2.5" fill="#1c2330" stroke="#ffffff" stroke-opacity="0.10" stroke-width="1"/><text x="147" y="118.5" font-family="Consolas, 'Courier New', monospace" font-size="8.5" fill="#71717a">55</text><circle r="2.8" fill="#a78bfa" opacity="0"><animateMotion path="M 26,79 C 62,79 84,67.5 110,67.5" begin="3.3s" dur="3.6s" repeatCount="indefinite"/><animate attributeName="opacity" values="0;1;1;0;0" keyTimes="0;0.02;0.3;0.33999999999999997;1" begin="3.3s" dur="3.6s" repeatCount="indefinite"/></circle>
<text x="12" y="148" font-family="Inter, 'Segoe UI', Arial, Helvetica, system-ui, sans-serif" font-size="9.5" fill="#71717a">live 12-factor scoring</text>
</g><g transform="translate(796,456)">
<rect width="173" height="158" rx="10" fill="#161b22" stroke="#ffffff" stroke-opacity="0.07" stroke-width="1"/>
<text x="12" y="21" font-family="Consolas, 'Courier New', monospace" font-size="11" fill="#a78bfa">fusion</text>
<circle cx="20" cy="79" r="4" fill="none" stroke="#c9d1d9" stroke-width="1.6"/><circle cx="20" cy="79" r="1.6" fill="#c9d1d9"/><path d="M 26,79 C 62,79 84,43.5 112,43.5" fill="none" stroke="#71717a" stroke-opacity="0.5" stroke-width="1.1" stroke-dasharray="3 3"/><path d="M 26,79 C 62,79 84,67.5 112,67.5" fill="none" stroke="#71717a" stroke-opacity="0.5" stroke-width="1.1" stroke-dasharray="3 3"/><path d="M 26,79 C 62,79 84,91.5 112,91.5" fill="none" stroke="#71717a" stroke-opacity="0.5" stroke-width="1.1" stroke-dasharray="3 3"/><rect x="116" y="38.0" width="26" height="11" rx="2.5" fill="#1c2330" stroke="#7ee787" stroke-opacity="0.8" stroke-width="1"/><rect x="116" y="62.0" width="26" height="11" rx="2.5" fill="#1c2330" stroke="#7ee787" stroke-opacity="0.8" stroke-width="1"/><rect x="116" y="86.0" width="26" height="11" rx="2.5" fill="#1c2330" stroke="#7ee787" stroke-opacity="0.8" stroke-width="1"/><rect x="116" y="110.0" width="26" height="11" rx="2.5" fill="#1c2330" stroke="#ffffff" stroke-opacity="0.10" stroke-width="1"/><circle r="2.8" fill="#a78bfa" opacity="0"><animateMotion path="M 26,79 C 62,79 84,43.5 110,43.5" begin="3.52s" dur="4.2s" repeatCount="indefinite" keyPoints="0;0;1;1" keyTimes="0;0.05;0.25;1" calcMode="linear"/><animate attributeName="opacity" values="0;0;1;1;0;0" keyTimes="0;0.05;0.07;0.23;0.25;1" begin="3.52s" dur="4.2s" repeatCount="indefinite"/></circle><circle r="2.8" fill="#a78bfa" opacity="0"><animateMotion path="M 26,79 C 62,79 84,67.5 110,67.5" begin="3.52s" dur="4.2s" repeatCount="indefinite" keyPoints="0;0;1;1" keyTimes="0;0.05;0.25;1" calcMode="linear"/><animate attributeName="opacity" values="0;0;1;1;0;0" keyTimes="0;0.05;0.07;0.23;0.25;1" begin="3.52s" dur="4.2s" repeatCount="indefinite"/></circle><circle r="2.8" fill="#a78bfa" opacity="0"><animateMotion path="M 26,79 C 62,79 84,91.5 110,91.5" begin="3.52s" dur="4.2s" repeatCount="indefinite" keyPoints="0;0;1;1" keyTimes="0;0.05;0.25;1" calcMode="linear"/><animate attributeName="opacity" values="0;0;1;1;0;0" keyTimes="0;0.05;0.07;0.23;0.25;1" begin="3.52s" dur="4.2s" repeatCount="indefinite"/></circle><circle r="2.2" fill="#7ee787" opacity="0"><animateMotion path="M 110,43.5 C 84,43.5 62,79 30,79" begin="3.52s" dur="4.2s" repeatCount="indefinite" keyPoints="0;0;1;1" keyTimes="0;0.35;0.55;1" calcMode="linear"/><animate attributeName="opacity" values="0;0;1;1;0;0" keyTimes="0;0.35;0.37;0.53;0.55;1" begin="3.52s" dur="4.2s" repeatCount="indefinite"/></circle><circle r="2.2" fill="#7ee787" opacity="0"><animateMotion path="M 110,67.5 C 84,67.5 62,79 30,79" begin="3.52s" dur="4.2s" repeatCount="indefinite" keyPoints="0;0;1;1" keyTimes="0;0.35;0.55;1" calcMode="linear"/><animate attributeName="opacity" values="0;0;1;1;0;0" keyTimes="0;0.35;0.37;0.53;0.55;1" begin="3.52s" dur="4.2s" repeatCount="indefinite"/></circle><circle r="2.2" fill="#7ee787" opacity="0"><animateMotion path="M 110,91.5 C 84,91.5 62,79 30,79" begin="3.52s" dur="4.2s" repeatCount="indefinite" keyPoints="0;0;1;1" keyTimes="0;0.35;0.55;1" calcMode="linear"/><animate attributeName="opacity" values="0;0;1;1;0;0" keyTimes="0;0.35;0.37;0.53;0.55;1" begin="3.52s" dur="4.2s" repeatCount="indefinite"/></circle><g transform="translate(44,72)"><path d="M 8,0 L 16,7 L 8,14 L 0,7 Z" fill="none" stroke="#fdcb6e" stroke-width="1.4"/></g>
<text x="12" y="148" font-family="Inter, 'Segoe UI', Arial, Helvetica, system-ui, sans-serif" font-size="9.5" fill="#71717a">panel + judge &#8594; one answer</text>
</g><g transform="translate(985,456)">
<rect width="173" height="158" rx="10" fill="#161b22" stroke="#ffffff" stroke-opacity="0.07" stroke-width="1"/>
<text x="12" y="21" font-family="Consolas, 'Courier New', monospace" font-size="11" fill="#a78bfa">pipeline</text>
<circle cx="20" cy="79" r="4" fill="none" stroke="#c9d1d9" stroke-width="1.6"/><circle cx="20" cy="79" r="1.6" fill="#c9d1d9"/><path d="M 26,79 C 56,79 80,43.5 112,43.5" fill="none" stroke="#8b5cf6" stroke-opacity="0.55" stroke-width="1.6"/><path d="M 142,43.5 C 158,43.5 158,67.5 142,67.5" fill="none" stroke="#8b5cf6" stroke-opacity="0.55" stroke-width="1.6"/><path d="M 116,67.5 C 96,67.5 96,91.5 116,91.5" fill="none" stroke="#8b5cf6" stroke-opacity="0.55" stroke-width="1.6"/><rect x="116" y="38.0" width="26" height="11" rx="2.5" fill="#1c2330" stroke="#7ee787" stroke-opacity="0.8" stroke-width="1"/><text x="147" y="46.5" font-family="Consolas, 'Courier New', monospace" font-size="8.5" fill="#71717a">1</text><rect x="116" y="62.0" width="26" height="11" rx="2.5" fill="#1c2330" stroke="#7ee787" stroke-opacity="0.8" stroke-width="1"/><text x="147" y="70.5" font-family="Consolas, 'Courier New', monospace" font-size="8.5" fill="#71717a">2</text><rect x="116" y="86.0" width="26" height="11" rx="2.5" fill="#1c2330" stroke="#7ee787" stroke-opacity="0.8" stroke-width="1"/><text x="147" y="94.5" font-family="Consolas, 'Courier New', monospace" font-size="8.5" fill="#71717a">3</text><rect x="116" y="110.0" width="26" height="11" rx="2.5" fill="#1c2330" stroke="#ffffff" stroke-opacity="0.10" stroke-width="1"/><circle r="2.8" fill="#a78bfa" opacity="0"><animateMotion path="M 26,79 C 56,79 80,43.5 110,43.5" begin="3.74s" dur="4.2s" repeatCount="indefinite" keyPoints="0;0;1;1" keyTimes="0;0.05;0.22;1" calcMode="linear"/><animate attributeName="opacity" values="0;0;1;1;0;0" keyTimes="0;0.05;0.07;0.2;0.22;1" begin="3.74s" dur="4.2s" repeatCount="indefinite"/></circle><circle r="2.8" fill="#a78bfa" opacity="0"><animateMotion path="M 142,43.5 C 158,43.5 158,67.5 142,67.5" begin="3.74s" dur="4.2s" repeatCount="indefinite" keyPoints="0;0;1;1" keyTimes="0;0.28;0.45;1" calcMode="linear"/><animate attributeName="opacity" values="0;0;1;1;0;0" keyTimes="0;0.28;0.30000000000000004;0.43;0.45;1" begin="3.74s" dur="4.2s" repeatCount="indefinite"/></circle><circle r="2.8" fill="#a78bfa" opacity="0"><animateMotion path="M 116,67.5 C 96,67.5 96,91.5 116,91.5" begin="3.74s" dur="4.2s" repeatCount="indefinite" keyPoints="0;0;1;1" keyTimes="0;0.51;0.68;1" calcMode="linear"/><animate attributeName="opacity" values="0;0;1;1;0;0" keyTimes="0;0.51;0.53;0.66;0.68;1" begin="3.74s" dur="4.2s" repeatCount="indefinite"/></circle>
<text x="12" y="148" font-family="Inter, 'Segoe UI', Arial, Helvetica, system-ui, sans-serif" font-size="9.5" fill="#71717a">each output feeds the next</text>
</g>
</svg>
